
<svg width="80px" height="80px" viewBox="0 0 80 80" version="1.1" xmlns="http://www.w3.org/2000/svg" xmlns:xlink="http://www.w3.org/1999/xlink">
    <!-- Generator: Sketch 47.1 (45422) - http://www.bohemiancoding.com/sketch -->
    <desc>Created with Sketch.</desc>
    <defs></defs>
    <g id="Page-1" stroke="none" stroke-width="1" fill="none" fill-rule="evenodd">
        <g id="loading" transform="translate(-10.000000, -10.000000)" fill-rule="nonzero" fill="#FFFFFF">
            <rect id="Rectangle-path" fill-opacity="1" x="47" y="10" width="6" height="20" rx="3"></rect>
            <rect id="Rectangle-path" fill-opacity="0.9" transform="translate(65.000000, 24.019238) rotate(30.000000) translate(-65.000000, -24.019238) " x="62" y="14.0192379" width="6" height="20" rx="3"></rect>
            <rect id="Rectangle-path" fill-opacity="0.8" transform="translate(75.980762, 35.000000) rotate(60.000000) translate(-75.980762, -35.000000) " x="72.9807621" y="25" width="6" height="20" rx="3"></rect>
            <rect id="Rectangle-path" fill-opacity="0.7" transform="translate(80.000000, 50.000000) rotate(90.000000) translate(-80.000000, -50.000000) " x="77" y="40" width="6" height="20" rx="3"></rect>
            <rect id="Rectangle-path" fill-opacity="0.6" transform="translate(75.980762, 65.000000) rotate(120.000000) translate(-75.980762, -65.000000) " x="72.9807621" y="55" width="6" height="20" rx="3"></rect>
            <rect id="Rectangle-path" fill-opacity="0.5" transform="translate(65.000000, 75.980762) rotate(150.000000) translate(-65.000000, -75.980762) " x="62" y="65.9807621" width="6" height="20" rx="3"></rect>
            <rect id="Rectangle-path" fill-opacity="0.4" transform="translate(50.000000, 80.000000) rotate(180.000000) translate(-50.000000, -80.000000) " x="47" y="70" width="6" height="20" rx="3"></rect>
            <rect id="Rectangle-path" fill-opacity="0.3" transform="translate(35.000000, 75.980762) rotate(-150.000000) translate(-35.000000, -75.980762) " x="32" y="65.9807621" width="6" height="20" rx="3"></rect>
            <rect id="Rectangle-path" fill-opacity="0.2" transform="translate(24.019238, 65.000000) rotate(-120.000000) translate(-24.019238, -65.000000) " x="21.0192379" y="55" width="6" height="20" rx="3"></rect>
            <rect id="Rectangle-path" fill-opacity="0.3" transform="translate(20.000000, 50.000000) rotate(-90.000000) translate(-20.000000, -50.000000) " x="17" y="40" width="6" height="20" rx="3"></rect>
            <rect id="Rectangle-path" fill-opacity="0.4" transform="translate(24.019238, 35.000000) rotate(-60.000000) translate(-24.019238, -35.000000) " x="21.0192379" y="25" width="6" height="20" rx="3"></rect>
            <rect id="Rectangle-path" fill-opacity="0.5" transform="translate(35.000000, 24.019238) rotate(-30.000000) translate(-35.000000, -24.019238) " x="32" y="14.0192379" width="6" height="20" rx="3"></rect>
        </g>
    </g>
</svg>